# xmcd
#
# Track frame offsets: 
#        150
#        10096
#        30676
#        46185
#        76786
#        87578
#        113573
#        127787
#        145412
#        161012
#        171811
#        188161
#        219154
#        231902
#        245912
#        313548
#        330698
#
# Disc length: 4799 seconds
#
# Revision: 0
# Processed by: cddbd v1.4PL0 Copyright (c) Steve Scherf et al.
# Submitted via: ExactAudioCopy v0.90b4
#
DISCID=db12bd11
DTITLE=Stevie Ray Vaughan - The Sky Is Crying and Live Additions
DYEAR=1991
DGENRE=Blues
TTITLE0=Boot Hill
TTITLE1=The Sky Is Crying
TTITLE2=Empty Arms
TTITLE3=Little Wing
TTITLE4=Wham
TTITLE5=May I Have A Talk With You
TTITLE6=Close To You
TTITLE7=Chitlins Con Carne
TTITLE8=So Excited
TTITLE9=Life By The Drop
TTITLE10=Pride And Joy
TTITLE11=Voodoo Chile
TTITLE12=12-String Acoustic Solo (Live)
TTITLE13=They Call Me Guitar Hurricane
TTITLE14=Voodoo Chile (live)
TTITLE15=Pride And Joy (Unplugged)
TTITLE16=Texas Flood (Live)
EXTD=
EXTT0=
EXTT1=
EXTT2=
EXTT3=
EXTT4=
EXTT5=
EXTT6=
EXTT7=
EXTT8=
EXTT9=
EXTT10=
EXTT11=
EXTT12=
EXTT13=
EXTT14=
EXTT15=
EXTT16=
PLAYORDER=
